Coordinates
version=1
nRows=24
nColumns=24
inDegrees=yes

Units are S.I. units (second, meters, Newtons, ...)
Angles are in degrees.

endheader
time	pelvis_tilt	pelvis_list	pelvis_rotation	pelvis_tx	pelvis_ty	pelvis_tz	hip_flexion_r	hip_adduction_r	hip_rotation_r	knee_angle_r	ankle_angle_r	subtalar_angle_r	mtp_angle_r	hip_flexion_l	hip_adduction_l	hip_rotation_l	knee_angle_l	ankle_angle_l	subtalar_angle_l	mtp_angle_l	lumbar_extension	lumbar_bending	lumbar_rotation
      1.39466667	     -1.04485350	      1.92914453	     -3.62887242	      0.93106838	      0.95593930	      0.30634182	    -22.96102457	     -1.81534024	     -3.41084633	     -5.04284668	     19.31431380	      3.60398475	      1.64371732	     26.95258285	      0.35745980	      2.29995324	      4.36937036	      1.69262412	     -6.15729503	      3.08233347	    -11.73728974	      2.31281063	      9.65736546
      1.39883333	     -1.09271704	      2.12610669	     -3.64392273	      0.93726073	      0.95509515	      0.30585030	    -23.11300577	     -2.08387632	     -3.49063151	     -5.37467567	     19.11328539	      3.56629357	      1.77006625	     27.11106013	      0.60365473	      2.43418222	      3.70961709	      1.43692271	     -6.37762506	      3.13154205	    -11.63424762	      2.01485856	      9.63544284
      1.40300000	     -1.15598950	      2.31286641	     -3.66378149	      0.94346898	      0.95425877	      0.30528846	    -23.19292400	     -2.35684725	     -3.67539370	     -5.82461634	     19.00748997	      3.76227590	      2.15400519	     27.25798844	      0.84863862	      2.69278311	      3.09499679	      0.88887309	     -7.04963063	      3.28140540	    -11.48994043	      1.76709351	      9.64087221
      1.40716667	     -1.20257202	      2.53571721	     -3.68058842	      0.94974010	      0.95349011	      0.30473363	    -23.30091088	     -2.66247213	     -3.83749142	     -6.25048121	     18.80976764	      3.84863885	      2.65266157	     27.39066869	      1.13476689	      2.91232958	      2.44759085	      0.32087671	     -7.65538916	      3.47280671	    -11.37041338	      1.45402346	      9.61933209
      1.41133333	     -1.23926807	      2.76679724	     -3.67563182	      0.95602552	      0.95276884	      0.30416534	    -23.42579158	     -2.96287016	     -3.97703063	     -6.65331894	     18.46142445	      3.69497442	      7.92675855	     27.53933479	      1.44024817	      3.05867215	      1.74127916	     -0.26826881	     -8.10050725	      5.43757739	    -11.27466057	      1.13002088	      9.55858845
      1.41550000	     -1.34272553	      3.00496175	     -3.69833485	      0.96235009	      0.95201892	      0.30358938	    -23.44251053	     -3.28640848	     -4.12025497	     -7.13275507	     18.20652433	      3.79169310	      7.99645500	     27.77208035	      1.74439135	      3.15458203	      0.98414705	     -0.89034827	     -8.61283331	      5.41878925	    -11.07681558	      0.80785203	      9.56919960
      1.41966667	     -1.41775727	      3.26329598	     -3.70555670	      0.96870635	      0.95134227	      0.30298431	    -23.48433767	     -3.62456935	     -4.27586919	     -7.62600670	     17.92534820	      3.82310948	      8.12435702	     27.96743219	      2.08127286	      3.28758251	      0.24322275	     -1.63562488	     -9.20300476	      5.41127617	    -10.91753749	      0.46006925	      9.53135875
      1.42383333	     -1.50155293	      3.53218581	     -3.71219402	      0.97508668	      0.95069841	      0.30237351	    -23.50465317	     -3.97244669	     -4.42436591	     -8.14056905	     17.60812668	      3.82643275	      8.30503289	     28.18281242	      2.43133690	      3.40142094	     -0.52690231	     -2.41032705	     -9.79059380	      5.42187048	    -10.74572493	      0.09633270	      9.50416522
      1.42800000	     -1.59875405	      3.80766665	     -3.71179458	      0.98147465	      0.95008564	      0.30173758	    -23.49349438	     -4.32495072	     -4.57354919	     -8.68571957	     17.25562694	      3.80191738	      8.54792525	     28.41952797	      2.79383000	      3.49990845	     -1.31053832	     -3.25286684	    -10.39428766	      5.44867052	    -10.56098020	     -0.26954969	      9.46732272
      1.43216667	     -1.69235211	      4.09797607	     -3.70630102	      0.98790061	      0.94952016	      0.30107547	    -23.47535719	     -4.69218566	     -4.73112793	     -9.25198153	     16.86264782	      3.76284844	      8.86938170	     28.67194029	      3.17771556	      3.58237947	     -2.14702093	     -4.07993564	    -10.96518776	      5.48130362	    -10.37902213	     -0.65020081	      9.42841988
      1.43633333	     -1.79183545	      4.39858203	     -3.69795774	      0.99432888	      0.94900386	      0.30040651	    -23.43323500	     -5.06809058	     -4.87807540	     -9.84663323	     16.42661190	      3.69168541	      9.26493118	     28.93343887	      3.57524447	      3.65744398	     -2.99591521	     -4.92438989	    -11.54382944	      5.52014854	    -10.18753360	     -1.04861402	      9.38715224
      1.44050000	     -1.89546274	      4.71136871	     -3.68927547	      1.00079262	      0.94852861	      0.29972585	    -23.37596986	     -5.45659216	     -5.01898971	    -10.45956482	     15.95751327	      3.59991270	      9.77929825	     29.20617885	      3.98669580	      3.71423716	     -3.86325560	     -5.78565533	    -12.12167271	      5.56856998	     -9.99629007	     -1.45237127	      9.35314008
      1.44466667	     -1.93996205	      5.05921119	     -3.64283725	      1.00731952	      0.94815012	      0.29899232	    -23.39617308	     -5.86900914	     -5.23770632	    -11.04438712	     15.33893917	      3.37765202	     16.12148010	     29.43957308	      4.45621290	      3.73383692	     -4.78986137	     -6.48663632	    -12.54035244	      6.22391262	     -9.87299236	     -1.91370428	      9.25663870
      1.44883333	     -2.06913865	      5.35800344	     -3.63672359	      1.01379618	      0.94775192	      0.29830181	    -23.28331623	     -6.24089562	     -5.30920284	    -11.69252910	     14.73300989	      3.22751199	     16.19065442	     29.78252996	      4.85136681	      3.70705340	     -5.77147046	     -7.19543695	    -12.93536880	      6.20190813	     -9.64525572	     -2.29998641	      9.25392359
      1.45300000	     -2.16474428	      5.69148008	     -3.60767394	      1.02032671	      0.94742060	      0.29756965	    -23.20086522	     -6.64325140	     -5.43742018	    -12.36332677	     14.11981120	      3.08110263	     16.39582240	     30.07816303	      5.30075993	      3.74660644	     -6.73810665	     -7.86926416	    -13.44642017	      6.17049329	     -9.45268730	     -2.73309762	      9.22030038
      1.45716667	     -2.21847962	      6.03731940	     -3.57421480	      1.02689483	      0.94718972	      0.29684178	    -23.16628963	     -7.05369411	     -5.56043627	    -13.02142275	     13.43618679	      2.87484174	     16.47186745	     30.36133180	      5.76042651	      3.66181977	     -7.78474924	     -8.37273682	    -13.64330469	      6.15140829	     -9.31521128	     -3.18911697	      9.15768492
      1.46133333	     -2.29619911	      6.38087764	     -3.54370583	      1.03346199	      0.94696666	      0.29610157	    -23.07523087	     -7.46454085	     -5.66334263	    -13.73418639	     12.72919534	      2.66325858	     16.58041129	     30.66614438	      6.22016738	      3.62355781	     -8.83806680	     -8.84418284	    -13.95176122	      6.12693051	     -9.13697831	     -3.63823465	      9.11007285
      1.46550000	     -2.41339555	      6.68289310	     -3.51614120	      1.03996730	      0.94673460	      0.29530413	    -22.89457086	     -7.84071185	     -5.72051097	    -14.52839654	     12.04479795	      2.45663929	     17.11243175	     31.00956017	      6.65246827	      3.70671890	     -9.89863561	     -9.36867488	    -14.55199054	      6.02955885	     -8.92676971	     -4.01438469	      9.14566441
      1.46966667	     -2.40475368	      7.04067297	     -3.47522129	      1.04656884	      0.94671465	      0.29451711	    -22.87850546	     -8.27023095	     -5.86122912	    -15.25031793	     11.12480674	      2.13949915	     22.95191979	     31.21467051	      7.14750477	      3.69513983	    -10.96554328	     -9.66656212	    -14.77710076	      4.90116024	     -8.86362130	     -4.48068369	      9.13365866
      1.47383333	     -2.42483648	      7.37603414	     -3.43263916	      1.05317076	      0.94666091	      0.29371677	    -22.80128130	     -8.67613884	     -5.96511012	    -16.04302416	     10.31762219	      1.91669734	     22.96588054	     31.47911304	      7.61989601	      3.65522368	    -12.11246461	     -9.81052897	    -14.97914592	      4.89465788	     -8.74906093	     -4.91115907	      9.06554872
      1.47800000	     -2.45296776	      7.70658284	     -3.40804796	      1.05975940	      0.94665390	      0.29292422	    -22.68598906	     -9.08516353	     -6.01941773	    -16.87248113	      9.46162684	      1.67468189	     23.00755925	     31.73480463	      8.08199004	      3.63346874	    -13.23042558	     -9.93482944	    -15.19719332	      4.87615943	     -8.63871121	     -5.33538624	      9.04020818
      1.48216667	     -2.49291389	      7.97814530	     -3.33760644	      1.06633245	      0.94667170	      0.29208277	    -22.56370217	     -9.40555770	     -6.03754090	    -17.68211475	      8.48634351	      1.25730869	     24.67441420	     31.99961962	      8.51719805	      3.71327757	    -14.37326112	     -9.93808438	    -15.41966587	      4.22201696	     -8.52888305	     -5.70957801	      9.21976988
      1.48633333	     -2.48382943	      8.32518923	     -3.34382889	      1.07292099	      0.94677726	      0.29128734	    -22.41969074	     -9.85668323	     -6.08326138	    -18.62264189	      7.60459199	      1.05727136	     24.76238338	     32.19303092	      8.99099809	      3.66450951	    -15.45936672	     -9.95272709	    -15.63871476	      4.17623151	     -8.44709210	     -6.12633332	      9.11144092
      1.49050000	     -2.48656922	      8.61472610	     -3.32858055	      1.07950441	      0.94690905	      0.29048435	    -22.26948382	    -10.22700076	     -6.05376979	    -19.52919990	      6.62975026	      0.72410751	     25.08031463	     32.39608315	      9.42307114	      3.66226635	    -16.56428538	     -9.84769568	    -15.89090190	      4.00638454	     -8.35957995	     -6.50950415	      9.21494031
